<svg version="1.1" class="clearos-svg clearfoundation app-vendor-clearfoundation app-free app-category-network app-sub-category-settings" viewBox="0 0 400 400" preserveAspectRatio="xMinYMin" xmlns="http://www.w3.org/2000/svg" xmlns:xlink= "http://www.w3.org/1999/xlink">
<path fill="#AA0707" d="M91.666,184.647"/>
<path fill="#AA0707" d="M123.245,247.805"/>
<path fill="#AA0707" d="M91.666,184.647"/>
<path fill="#AA0707" d="M123.245,247.805"/>
<g>
	<g>
		<path fill="#686868" d="M255.704,88.599c-78.478,0-142.079,63.602-142.079,142.073c0,78.445,63.602,142.078,142.079,142.078
			c78.479,0,142.096-63.602,142.096-142.063C397.8,152.201,334.184,88.599,255.704,88.599z M255.704,358.346
			c-70.49,0-127.682-57.152-127.682-127.643c0-70.515,57.16-127.69,127.682-127.69c70.538,0,127.675,57.175,127.675,127.69
			C383.395,301.193,326.242,358.346,255.704,358.346z"/>
		<g>
			<path fill="#686868" d="M247.372,115.724v-0.353c-40.017,3.829-73.261,34.821-86.058,77.003h25.971
				C196.316,151.322,219.408,120.855,247.372,115.724z"/>
			<path fill="#686868" d="M183.127,230.688c0-7.879,0.51-15.605,1.443-23.061h-26.999c-1.286,7.453-1.993,15.166-1.993,23.061
				c0,7.609,0.675,15.049,1.899,22.252h27.03C183.621,245.736,183.127,238.297,183.127,230.688z"/>
			<path fill="#686868" d="M187.097,268.191h-26.033c12.608,42.574,46.042,73.912,86.309,77.787v-0.346
				C219.221,340.471,195.994,309.65,187.097,268.191z"/>
			<path fill="#686868" d="M247.372,207.643h-49.259c-1.153,7.392-1.843,15.072-1.843,23.045c0,7.705,0.643,15.08,1.718,22.27
				h49.354L247.372,207.643L247.372,207.643z"/>
			<path fill="#686868" d="M247.372,136.885c-20.651,4.66-37.851,26.112-46.011,55.504h46.011V136.885z"/>
			<path fill="#686868" d="M262.625,252.939h50.844c1.051-7.172,1.711-14.611,1.711-22.27c0-7.957-0.69-15.67-1.837-23.045h-50.718
				V252.939z"/>
			<path fill="#686868" d="M310.109,192.374c-8.363-30.098-26.205-51.918-47.484-55.857v55.857H310.109z"/>
			<path fill="#686868" d="M262.625,324.826c21.467-3.955,39.451-26.113,47.705-56.619h-47.705V324.826z"/>
			<path fill="#686868" d="M201.143,268.191c8.034,29.77,25.392,51.582,46.229,56.271v-56.271H201.143z"/>
			<path fill="#686868" d="M324.171,192.374h25.972c-12.963-42.707-46.89-73.864-87.518-77.097v0.157
				C291.248,119.741,314.975,150.577,324.171,192.374z"/>
			<path fill="#686868" d="M328.346,230.688c0,7.609-0.503,15.049-1.382,22.252h27.022c1.225-7.203,1.883-14.674,1.883-22.252
				c0-7.879-0.689-15.605-1.978-23.061h-27.055C327.843,215.08,328.346,222.809,328.346,230.688z"/>
			<path fill="#686868" d="M262.625,345.9v0.188c40.895-3.25,74.979-34.773,87.783-77.896h-26.049
				C315.273,310.373,291.438,341.586,262.625,345.9z"/>
		</g>
	</g>
	<g>
		<g>
			<path fill="#686868" d="M135.916,54.39v-0.337C95.9,57.874,62.671,88.859,49.866,131.04h25.963
				C84.86,89.964,107.937,59.513,135.916,54.39z"/>
			<path fill="#686868" d="M71.687,169.329c0-7.885,0.51-15.598,1.443-23.037H46.132c-1.279,7.438-1.978,15.151-1.978,23.037
				c0,7.619,0.675,15.057,1.898,22.244h27.03C72.181,184.386,71.687,176.948,71.687,169.329z"/>
			<g>
				<path fill="#686868" d="M75.657,206.85H49.623c8.592,28.969,26.912,52.479,50.342,65.908
					c-1.476-5.492-2.668-11.078-3.563-16.822C87.065,242.816,79.784,226.057,75.657,206.85z"/>
				<path fill="#686868" d="M86.681,146.292c-1.177,7.391-1.852,15.088-1.852,23.037c0,7.682,0.644,15.112,1.702,22.26h12.648
					c4.033-16.234,10.49-31.448,19.043-45.296L86.681,146.292L86.681,146.292z"/>
				<path fill="#686868" d="M135.916,75.551c-20.651,4.661-37.858,26.112-46.011,55.489h38.887c2.251-2.88,4.645-5.642,7.085-8.356
					L135.916,75.551L135.916,75.551z"/>
				<path fill="#686868" d="M151.161,75.182v32.554c7.862-6.685,16.359-12.625,25.422-17.741
					C169.098,82.22,160.498,76.916,151.161,75.182z"/>
				<path fill="#686868" d="M89.701,206.85c1.382,5.115,3.115,9.887,5.015,14.453c0.282-4.889,0.753-9.705,1.459-14.453H89.701z"/>
				<path fill="#686868" d="M151.161,53.958v0.141c15.591,2.346,29.604,12.727,40.722,28.27c4.276-1.852,8.68-3.444,13.119-4.935
					C189.89,64.08,171.357,55.543,151.161,53.958z"/>
			</g>
		</g>
		<path fill="#686868" d="M106.053,291.166c-51.832-16.258-89.438-64.639-89.438-121.837c0-70.506,57.159-127.682,127.674-127.682
			c31.463,0,60.182,11.408,82.417,30.286c6.151-1.106,12.412-1.812,18.8-2.228C219.723,43.53,183.927,27.25,144.272,27.25
			C65.817,27.25,2.2,90.852,2.2,169.314c0,68.073,47.886,124.849,111.793,138.752C111.004,302.668,108.399,296.971,106.053,291.166z
			"/>
	</g>
</g>
</svg>
